<mxfile host="app.diagrams.net" modified="2024-04-13T08:22:28.662Z" agent="Mozilla/5.0 (Macintosh; Intel Mac OS X 10_15_7) AppleWebKit/537.36 (KHTML, like Gecko) Chrome/123.0.0.0 Safari/537.36" etag="t2SxKQLIz6_pd-BWKwaS" version="24.2.3" type="github">
  <diagram name="第 1 页" id="BZP7j4EBE2frMY6dUary">
    <mxGraphModel dx="909" dy="1755" grid="1" gridSize="10" guides="1" tooltips="1" connect="1" arrows="1" fold="1" page="1" pageScale="1" pageWidth="827" pageHeight="1169" math="0" shadow="0">
      <root>
        <mxCell id="0" />
        <mxCell id="1" parent="0" />
        <mxCell id="CTMLsmFPayaTSugQ_vrA-6" style="edgeStyle=orthogonalEdgeStyle;rounded=0;orthogonalLoop=1;jettySize=auto;html=1;exitX=1;exitY=0.75;exitDx=0;exitDy=0;entryX=0.5;entryY=0;entryDx=0;entryDy=0;strokeColor=#FC8D6A;endArrow=classic;endFill=1;" edge="1" parent="1" source="CTMLsmFPayaTSugQ_vrA-2" target="CTMLsmFPayaTSugQ_vrA-3">
          <mxGeometry relative="1" as="geometry" />
        </mxCell>
        <mxCell id="CTMLsmFPayaTSugQ_vrA-26" style="edgeStyle=orthogonalEdgeStyle;rounded=0;orthogonalLoop=1;jettySize=auto;html=1;exitX=0;exitY=0.75;exitDx=0;exitDy=0;entryX=0.5;entryY=0;entryDx=0;entryDy=0;strokeColor=#17AAD5;endArrow=classic;endFill=1;" edge="1" parent="1" source="CTMLsmFPayaTSugQ_vrA-2" target="CTMLsmFPayaTSugQ_vrA-22">
          <mxGeometry relative="1" as="geometry" />
        </mxCell>
        <mxCell id="CTMLsmFPayaTSugQ_vrA-2" value="SBImmerStartPb" style="rounded=1;whiteSpace=wrap;html=1;strokeColor=#FC8D6A;" vertex="1" parent="1">
          <mxGeometry x="369" y="-1109" width="100" height="49.71" as="geometry" />
        </mxCell>
        <mxCell id="CTMLsmFPayaTSugQ_vrA-27" value="" style="edgeStyle=orthogonalEdgeStyle;rounded=0;orthogonalLoop=1;jettySize=auto;html=1;dashed=1;endArrow=classic;endFill=1;strokeColor=#FC8D6A;" edge="1" parent="1" source="CTMLsmFPayaTSugQ_vrA-3" target="CTMLsmFPayaTSugQ_vrA-4">
          <mxGeometry relative="1" as="geometry" />
        </mxCell>
        <mxCell id="CTMLsmFPayaTSugQ_vrA-3" value="QueryUserType" style="rounded=1;whiteSpace=wrap;html=1;strokeColor=#FC8D6A;" vertex="1" parent="1">
          <mxGeometry x="447" y="-1016.29" width="100" height="49.71" as="geometry" />
        </mxCell>
        <mxCell id="CTMLsmFPayaTSugQ_vrA-28" style="edgeStyle=orthogonalEdgeStyle;rounded=0;orthogonalLoop=1;jettySize=auto;html=1;entryX=0.75;entryY=0;entryDx=0;entryDy=0;endArrow=classic;endFill=1;strokeColor=#FC8D6A;" edge="1" parent="1" source="CTMLsmFPayaTSugQ_vrA-4" target="CTMLsmFPayaTSugQ_vrA-7">
          <mxGeometry relative="1" as="geometry" />
        </mxCell>
        <mxCell id="CTMLsmFPayaTSugQ_vrA-4" value="SBImmerRecallUms" style="rounded=1;whiteSpace=wrap;html=1;strokeColor=#FC8D6A;" vertex="1" parent="1">
          <mxGeometry x="437" y="-925" width="120" height="49.71" as="geometry" />
        </mxCell>
        <mxCell id="CTMLsmFPayaTSugQ_vrA-30" value="" style="edgeStyle=orthogonalEdgeStyle;rounded=0;orthogonalLoop=1;jettySize=auto;html=1;strokeColor=#FC8D6A;" edge="1" parent="1" source="CTMLsmFPayaTSugQ_vrA-7" target="CTMLsmFPayaTSugQ_vrA-8">
          <mxGeometry relative="1" as="geometry" />
        </mxCell>
        <mxCell id="CTMLsmFPayaTSugQ_vrA-7" value="SBImmerAttention" style="rounded=1;whiteSpace=wrap;html=1;strokeColor=#FC8D6A;" vertex="1" parent="1">
          <mxGeometry x="359" y="-833" width="120" height="49.71" as="geometry" />
        </mxCell>
        <mxCell id="CTMLsmFPayaTSugQ_vrA-31" style="edgeStyle=orthogonalEdgeStyle;rounded=0;orthogonalLoop=1;jettySize=auto;html=1;entryX=0.5;entryY=0;entryDx=0;entryDy=0;strokeColor=#FC8D6A;dashed=1;" edge="1" parent="1" source="CTMLsmFPayaTSugQ_vrA-8" target="CTMLsmFPayaTSugQ_vrA-9">
          <mxGeometry relative="1" as="geometry" />
        </mxCell>
        <mxCell id="CTMLsmFPayaTSugQ_vrA-8" value="SBImmerBeforeGcms" style="rounded=1;whiteSpace=wrap;html=1;strokeColor=#FC8D6A;" vertex="1" parent="1">
          <mxGeometry x="351" y="-740" width="136" height="49.71" as="geometry" />
        </mxCell>
        <mxCell id="CTMLsmFPayaTSugQ_vrA-32" style="edgeStyle=orthogonalEdgeStyle;rounded=0;orthogonalLoop=1;jettySize=auto;html=1;exitX=0;exitY=0.75;exitDx=0;exitDy=0;strokeColor=#FC8D6A;dashed=1;" edge="1" parent="1" source="CTMLsmFPayaTSugQ_vrA-9" target="CTMLsmFPayaTSugQ_vrA-10">
          <mxGeometry relative="1" as="geometry" />
        </mxCell>
        <mxCell id="CTMLsmFPayaTSugQ_vrA-33" style="edgeStyle=orthogonalEdgeStyle;rounded=0;orthogonalLoop=1;jettySize=auto;html=1;exitX=1;exitY=0.75;exitDx=0;exitDy=0;strokeColor=#17AAD5;" edge="1" parent="1" source="CTMLsmFPayaTSugQ_vrA-9" target="CTMLsmFPayaTSugQ_vrA-23">
          <mxGeometry relative="1" as="geometry" />
        </mxCell>
        <mxCell id="CTMLsmFPayaTSugQ_vrA-34" style="edgeStyle=orthogonalEdgeStyle;rounded=0;orthogonalLoop=1;jettySize=auto;html=1;entryX=0;entryY=0.25;entryDx=0;entryDy=0;strokeColor=#FC8D6A;" edge="1" parent="1" source="CTMLsmFPayaTSugQ_vrA-10" target="CTMLsmFPayaTSugQ_vrA-11">
          <mxGeometry relative="1" as="geometry" />
        </mxCell>
        <mxCell id="CTMLsmFPayaTSugQ_vrA-9" value="SBImmerRecallUrs" style="rounded=1;whiteSpace=wrap;html=1;strokeColor=#FC8D6A;" vertex="1" parent="1">
          <mxGeometry x="359" y="-650" width="120" height="49.71" as="geometry" />
        </mxCell>
        <mxCell id="CTMLsmFPayaTSugQ_vrA-10" value="SBImmerRecallGcms" style="rounded=1;whiteSpace=wrap;html=1;strokeColor=#FC8D6A;" vertex="1" parent="1">
          <mxGeometry x="269" y="-557" width="121" height="49.71" as="geometry" />
        </mxCell>
        <mxCell id="CTMLsmFPayaTSugQ_vrA-36" value="" style="edgeStyle=orthogonalEdgeStyle;rounded=0;orthogonalLoop=1;jettySize=auto;html=1;strokeColor=#FC8D6A;" edge="1" parent="1" source="CTMLsmFPayaTSugQ_vrA-11" target="CTMLsmFPayaTSugQ_vrA-12">
          <mxGeometry relative="1" as="geometry" />
        </mxCell>
        <mxCell id="CTMLsmFPayaTSugQ_vrA-11" value="SBImmerMergeGcms" style="rounded=1;whiteSpace=wrap;html=1;strokeColor=#FC8D6A;" vertex="1" parent="1">
          <mxGeometry x="351" y="-465" width="136" height="49.71" as="geometry" />
        </mxCell>
        <mxCell id="CTMLsmFPayaTSugQ_vrA-38" value="" style="edgeStyle=orthogonalEdgeStyle;rounded=0;orthogonalLoop=1;jettySize=auto;html=1;strokeColor=#FC8D6A;dashed=1;" edge="1" parent="1" source="CTMLsmFPayaTSugQ_vrA-12" target="CTMLsmFPayaTSugQ_vrA-13">
          <mxGeometry relative="1" as="geometry" />
        </mxCell>
        <mxCell id="CTMLsmFPayaTSugQ_vrA-12" value="ImmerseSonar" style="rounded=1;whiteSpace=wrap;html=1;strokeColor=#FC8D6A;" vertex="1" parent="1">
          <mxGeometry x="369" y="-372.71" width="101" height="49.71" as="geometry" />
        </mxCell>
        <mxCell id="CTMLsmFPayaTSugQ_vrA-39" style="edgeStyle=orthogonalEdgeStyle;rounded=0;orthogonalLoop=1;jettySize=auto;html=1;strokeColor=#FC8D6A;" edge="1" parent="1" source="CTMLsmFPayaTSugQ_vrA-13" target="CTMLsmFPayaTSugQ_vrA-14">
          <mxGeometry relative="1" as="geometry" />
        </mxCell>
        <mxCell id="CTMLsmFPayaTSugQ_vrA-13" value="SBImmerFilter" style="rounded=1;whiteSpace=wrap;html=1;strokeColor=#FC8D6A;" vertex="1" parent="1">
          <mxGeometry x="369" y="-282" width="101" height="49.71" as="geometry" />
        </mxCell>
        <mxCell id="CTMLsmFPayaTSugQ_vrA-40" value="" style="edgeStyle=orthogonalEdgeStyle;rounded=0;orthogonalLoop=1;jettySize=auto;html=1;strokeColor=#FC8D6A;dashed=1;" edge="1" parent="1" source="CTMLsmFPayaTSugQ_vrA-14" target="CTMLsmFPayaTSugQ_vrA-15">
          <mxGeometry relative="1" as="geometry" />
        </mxCell>
        <mxCell id="CTMLsmFPayaTSugQ_vrA-14" value="SBImmerDiversity" style="rounded=1;whiteSpace=wrap;html=1;strokeColor=#FC8D6A;" vertex="1" parent="1">
          <mxGeometry x="361" y="-190" width="117" height="49.71" as="geometry" />
        </mxCell>
        <mxCell id="CTMLsmFPayaTSugQ_vrA-41" style="edgeStyle=orthogonalEdgeStyle;rounded=0;orthogonalLoop=1;jettySize=auto;html=1;entryX=0.5;entryY=0;entryDx=0;entryDy=0;strokeColor=#FC8D6A;dashed=1;" edge="1" parent="1" source="CTMLsmFPayaTSugQ_vrA-15" target="CTMLsmFPayaTSugQ_vrA-16">
          <mxGeometry relative="1" as="geometry" />
        </mxCell>
        <mxCell id="CTMLsmFPayaTSugQ_vrA-47" style="edgeStyle=orthogonalEdgeStyle;rounded=0;orthogonalLoop=1;jettySize=auto;html=1;exitX=0;exitY=0.75;exitDx=0;exitDy=0;strokeColor=#17AAD5;dashed=1;" edge="1" parent="1" source="CTMLsmFPayaTSugQ_vrA-15" target="CTMLsmFPayaTSugQ_vrA-24">
          <mxGeometry relative="1" as="geometry" />
        </mxCell>
        <mxCell id="CTMLsmFPayaTSugQ_vrA-43" style="edgeStyle=orthogonalEdgeStyle;rounded=0;orthogonalLoop=1;jettySize=auto;html=1;dashed=1;strokeColor=#FC8D6A;" edge="1" parent="1" source="CTMLsmFPayaTSugQ_vrA-16" target="CTMLsmFPayaTSugQ_vrA-17">
          <mxGeometry relative="1" as="geometry" />
        </mxCell>
        <mxCell id="CTMLsmFPayaTSugQ_vrA-48" style="edgeStyle=orthogonalEdgeStyle;rounded=0;orthogonalLoop=1;jettySize=auto;html=1;exitX=1;exitY=0.75;exitDx=0;exitDy=0;strokeColor=#17AAD5;dashed=1;" edge="1" parent="1" source="CTMLsmFPayaTSugQ_vrA-15" target="CTMLsmFPayaTSugQ_vrA-25">
          <mxGeometry relative="1" as="geometry" />
        </mxCell>
        <mxCell id="CTMLsmFPayaTSugQ_vrA-16" value="SBImmerFine_Rank" style="rounded=1;whiteSpace=wrap;html=1;strokeColor=#FC8D6A;" vertex="1" parent="1">
          <mxGeometry x="360" y="-5" width="117" height="49.71" as="geometry" />
        </mxCell>
        <mxCell id="CTMLsmFPayaTSugQ_vrA-44" style="edgeStyle=orthogonalEdgeStyle;rounded=0;orthogonalLoop=1;jettySize=auto;html=1;strokeColor=#FC8D6A;dashed=1;" edge="1" parent="1" source="CTMLsmFPayaTSugQ_vrA-17" target="CTMLsmFPayaTSugQ_vrA-18">
          <mxGeometry relative="1" as="geometry" />
        </mxCell>
        <mxCell id="CTMLsmFPayaTSugQ_vrA-15" value="SBImmerSimpleAdjust" style="rounded=1;whiteSpace=wrap;html=1;strokeColor=#FC8D6A;" vertex="1" parent="1">
          <mxGeometry x="351" y="-97" width="137" height="50" as="geometry" />
        </mxCell>
        <mxCell id="CTMLsmFPayaTSugQ_vrA-17" value="SBImmerMultiAdjust" style="rounded=1;whiteSpace=wrap;html=1;strokeColor=#FC8D6A;" vertex="1" parent="1">
          <mxGeometry x="351" y="87" width="137" height="50" as="geometry" />
        </mxCell>
        <mxCell id="CTMLsmFPayaTSugQ_vrA-45" style="edgeStyle=orthogonalEdgeStyle;rounded=0;orthogonalLoop=1;jettySize=auto;html=1;entryX=0.5;entryY=0;entryDx=0;entryDy=0;dashed=1;strokeColor=#FC8D6A;" edge="1" parent="1" source="CTMLsmFPayaTSugQ_vrA-18" target="CTMLsmFPayaTSugQ_vrA-19">
          <mxGeometry relative="1" as="geometry" />
        </mxCell>
        <mxCell id="CTMLsmFPayaTSugQ_vrA-18" value="SBImmerMergeQueue" style="rounded=1;whiteSpace=wrap;html=1;strokeColor=#FC8D6A;" vertex="1" parent="1">
          <mxGeometry x="351" y="179" width="137" height="50" as="geometry" />
        </mxCell>
        <mxCell id="CTMLsmFPayaTSugQ_vrA-46" style="edgeStyle=orthogonalEdgeStyle;rounded=0;orthogonalLoop=1;jettySize=auto;html=1;entryX=0.5;entryY=0;entryDx=0;entryDy=0;strokeColor=#FC8D6A;" edge="1" parent="1" source="CTMLsmFPayaTSugQ_vrA-19" target="CTMLsmFPayaTSugQ_vrA-20">
          <mxGeometry relative="1" as="geometry" />
        </mxCell>
        <mxCell id="CTMLsmFPayaTSugQ_vrA-19" value="SBImmerIntervention" style="rounded=1;whiteSpace=wrap;html=1;strokeColor=#FC8D6A;" vertex="1" parent="1">
          <mxGeometry x="351" y="271" width="137" height="50" as="geometry" />
        </mxCell>
        <mxCell id="CTMLsmFPayaTSugQ_vrA-20" value="SBImmerEndPb" style="rounded=1;whiteSpace=wrap;html=1;strokeColor=#FC8D6A;" vertex="1" parent="1">
          <mxGeometry x="370" y="363" width="99" height="49.71" as="geometry" />
        </mxCell>
        <mxCell id="CTMLsmFPayaTSugQ_vrA-29" style="edgeStyle=orthogonalEdgeStyle;rounded=0;orthogonalLoop=1;jettySize=auto;html=1;entryX=0.25;entryY=0;entryDx=0;entryDy=0;dashed=1;strokeColor=#17AAD5;" edge="1" parent="1" source="CTMLsmFPayaTSugQ_vrA-22" target="CTMLsmFPayaTSugQ_vrA-7">
          <mxGeometry relative="1" as="geometry" />
        </mxCell>
        <mxCell id="CTMLsmFPayaTSugQ_vrA-22" value="SBImmerRecallUms" style="rounded=1;whiteSpace=wrap;html=1;strokeColor=#17AAD5;" vertex="1" parent="1">
          <mxGeometry x="270" y="-925" width="130" height="49.71" as="geometry" />
        </mxCell>
        <mxCell id="CTMLsmFPayaTSugQ_vrA-37" style="edgeStyle=orthogonalEdgeStyle;rounded=0;orthogonalLoop=1;jettySize=auto;html=1;entryX=1;entryY=0.25;entryDx=0;entryDy=0;strokeColor=#17AAD5;" edge="1" parent="1" source="CTMLsmFPayaTSugQ_vrA-23" target="CTMLsmFPayaTSugQ_vrA-11">
          <mxGeometry relative="1" as="geometry" />
        </mxCell>
        <mxCell id="CTMLsmFPayaTSugQ_vrA-23" value="SBImmerMsgRecallGcms" style="rounded=1;whiteSpace=wrap;html=1;strokeColor=#17AAD5;" vertex="1" parent="1">
          <mxGeometry x="431" y="-557" width="152" height="49.71" as="geometry" />
        </mxCell>
        <mxCell id="CTMLsmFPayaTSugQ_vrA-49" style="edgeStyle=orthogonalEdgeStyle;rounded=0;orthogonalLoop=1;jettySize=auto;html=1;entryX=0;entryY=0.25;entryDx=0;entryDy=0;strokeColor=#17AAD5;dashed=1;" edge="1" parent="1" source="CTMLsmFPayaTSugQ_vrA-24" target="CTMLsmFPayaTSugQ_vrA-17">
          <mxGeometry relative="1" as="geometry">
            <Array as="points">
              <mxPoint x="260" y="100" />
              <mxPoint x="331" y="100" />
            </Array>
          </mxGeometry>
        </mxCell>
        <mxCell id="CTMLsmFPayaTSugQ_vrA-24" value="SBImmerDsCvr_Rank" style="rounded=1;whiteSpace=wrap;html=1;strokeColor=#17AAD5;" vertex="1" parent="1">
          <mxGeometry x="196" y="-5" width="130" height="49.71" as="geometry" />
        </mxCell>
        <mxCell id="CTMLsmFPayaTSugQ_vrA-51" style="edgeStyle=orthogonalEdgeStyle;rounded=0;orthogonalLoop=1;jettySize=auto;html=1;entryX=1;entryY=0.25;entryDx=0;entryDy=0;dashed=1;strokeColor=#17AAD5;" edge="1" parent="1" source="CTMLsmFPayaTSugQ_vrA-25" target="CTMLsmFPayaTSugQ_vrA-17">
          <mxGeometry relative="1" as="geometry">
            <Array as="points">
              <mxPoint x="574" y="100" />
              <mxPoint x="508" y="100" />
            </Array>
          </mxGeometry>
        </mxCell>
        <mxCell id="CTMLsmFPayaTSugQ_vrA-25" value="SBImmerRecallDup" style="rounded=1;whiteSpace=wrap;html=1;strokeColor=#17AAD5;" vertex="1" parent="1">
          <mxGeometry x="509" y="-5" width="130" height="49.71" as="geometry" />
        </mxCell>
      </root>
    </mxGraphModel>
  </diagram>
</mxfile>
